<svg xmlns="http://www.w3.org/2000/svg" style="display: none;">
  <symbol id="vote-arrow" viewBox="0 0 15 24"><path d="M6.802.129l-6.709 7.637c-.211.241-.037.615.289.615h3.629c.21 0 .38.167.38.372v14.875c0 .205.169.372.379.372h4.64c.21 0 .379-.167.379-.372v-14.876c0-.205.17-.372.38-.372h3.63c.325 0 .5-.373.289-.615l-6.709-7.637c-.153-.171-.427-.171-.578.001z"/></symbol>

  <symbol id="anchor" viewBox="0 0 24 24"><path d="M4 16v-8h-4v-4h4v-4h4v4h8v-4h4v4h4v4h-4v8h4v4h-4v4h-4v-4h-8v4h-4v-4h-4v-4h4zm4 0h8v-8h-8v8z"/></symbol>

  <symbol id="book" viewBox="0 0 20 32"><path d="M10 25.645l10 6.355v-30c0-1.105-.895-2-2-2h-16c-1.105 0-2 .895-2 2v30l10-6.355z"/></symbol>

  <symbol id="pencil" viewBox="0 0 24 24"><path d="M4 20h4.343l10-10-4.343-4.343-10 10v4.343zm-4-6l14-14 10 10-14 14h-10v-10z"/></symbol>

  <symbol id="tree" viewBox="0 0 16 24"><path d="M0 0h4v12h-4v-12zm0 16h4v8h-4v-8zm12-8h4v16h-4v-16zm0 0v4h-8v-4h8z"/></symbol>

  <symbol id="rounded-arrow" viewBox="0 0 24 24"><path d="M12 24c-6.627 0-12-5.373-12-12s5.373-12 12-12 12 5.373 12 12-5.373 12-12 12zm5.333-7.335l2.666-2.666-8.001-7.999-7.999 7.999 2.666 2.666 5.333-5.333 5.334 5.333z"/></symbol>

  <symbol id="slug" viewBox="0 0 24 24"><path d="M21.5 24h-19c-1.379 0-2.5-1.122-2.5-2.5v-19c0-1.379 1.122-2.5 2.5-2.5h19c1.379 0 2.5 1.122 2.5 2.5v19c0 1.379-1.122 2.5-2.5 2.5zm-19-23c-.827 0-1.5.673-1.5 1.5v19c0 .827.673 1.5 1.5 1.5h19c.827 0 1.5-.673 1.5-1.5v-19c0-.827-.673-1.5-1.5-1.5h-19zM15.598 12.385zM19.438 15.417l-.002-.005v-.001c-.875-2.226-2.484-3.054-3.445-3.549l-.273-.143c.029-.497-.025-1.034-.167-1.599l-.128.032.123-.044c-.765-2.152-1.757-2.585-2.632-2.967l-.006-.003-.535-2.121c.357-.065.628-.375.628-.752.001-.423-.342-.765-.765-.765s-.766.342-.766.765c0 .358.248.657.581.74l-.825 1.654-.014-.003-.024-.003c-1.053-.033-1.842.369-2.5.947-.633-.322-1.515-.729-2.158-1.814.107-.12.174-.276.174-.45 0-.375-.303-.678-.678-.678s-.678.303-.678.678.303.678.678.678l.221-.04c.416.597 1.09 1.181 1.347 2.828l-.072.091.104.081-.112-.067c-1.157 1.914-.793 4.248.207 5.37-.998 2.546-1.035 4.681-.097 5.868l.002.002.003.003c.119.162.313.233.524.233.189 0 .39-.057.559-.154.312-.179.441-.459.326-.713l-.12.054.119-.056c-.581-1.243-.474-2.713.314-4.37.4.131.778.208 1.145.234l.139.73c.264 1.418.514 2.757 1.297 4.006.132.264.453.387.777.387.122 0 .245-.018.357-.051.385-.116.591-.399.537-.738l-.129.021.125-.042c-.204-.606-.431-1.146-.649-1.67-.373-.894-.725-1.742-.891-2.737.407-.042.797-.129 1.161-.261.825.692 1.661 1.492 2.743 3.406h.001c.072.14.224.215.41.215.105 0 .222-.024.339-.073.365-.155.652-.531.477-1.006v-.001c-.432-1.849-1.426-2.778-2.428-3.547.162-.175.311-.366.442-.576.75.399 1.878 1.005 3.127 2.766l.047.067.011-.008c.151.156.317.24.48.24.096 0 .191-.027.279-.084.306-.194.439-.662.29-1.005zm-8.878-2.493c-.947 0-1.713-.767-1.713-1.713s.767-1.713 1.713-1.713c.947 0 1.713.767 1.713 1.713s-.767 1.713-1.713 1.713zm6.587 4.648l-.084.021v-.001l.084-.02zm-2.007-5.312zm.022 1.006zM11.225 11.604c0 .385-.312.697-.697.697s-.697-.312-.697-.697c0-.385.312-.697.697-.697s.697.312.697.697z"/></symbol>

  <symbol id="arrow-bold" viewBox="0 0 14 16"><path d="M13.27 7.486l-6.389-7.39c-.112-.128-.316-.128-.427 0l-6.389 7.39c-.151.175-.022.439.213.439h3.319c.154 0 .277.119.277.268v7.54c0 .149.124.267.278.267h5.03c.154 0 .278-.118.278-.268v-7.538c0-.148.123-.268.277-.268h3.318c.236 0 .364-.265.214-.439z"/></symbol>

  <symbol id="eye" viewBox="0 0 42 24"><path d="M21 0c13.776 0 21 10.357 21 12s-7.224 12-21 12-21-10.357-21-12 7.224-12 21-12zm0 21.232c5.156 0 9.334-4.133 9.334-9.232s-4.179-9.232-9.334-9.232c-5.155 0-9.335 4.133-9.335 9.232s4.179 9.232 9.335 9.232zm0-9.232c-.053 1.096 4.116 2.523 3.3 3.352-1.774 1.803-4.691 1.763-6.513-.088s-1.861-4.813-.087-6.616 4.691-1.763 6.513.088c.984 1-3.15 1.973-3.213 3.264z"/></symbol>

  <symbol id="comment" viewBox="0 0 24 24"><path d="M1.5 0h21c.828 0 1.5.672 1.5 1.5v15c0 .828-.672 1.5-1.5 1.5h-21c-.828 0-1.5-.672-1.5-1.5v-15c0-.828.672-1.5 1.5-1.5zm12 18v6l-7.5-6h7.5z"/></symbol>

  <symbol id="globus" viewBox="0 0 32 32"><path d="M21.16 27.308c.724-1.71 1.246-3.766 1.568-5.976h4.496c-1.256 2.634-3.406 4.756-6.064 5.976zm-16.388-5.976h4.498c.32 2.21.844 4.264 1.566 5.976-2.656-1.218-4.808-3.34-6.064-5.976zm6.064-16.644c-.722 1.71-1.246 3.766-1.566 5.976h-4.498c1.256-2.636 3.406-4.76 6.064-5.976zm16.388 5.976h-4.496c-.322-2.21-.844-4.266-1.568-5.976 2.658 1.218 4.808 3.342 6.064 5.976zm-4.16 3.556h5.238c.084.582.142 1.172.142 1.778 0 .604-.06 1.194-.142 1.778h-5.238c.028-.592.046-1.184.046-1.778s-.018-1.188-.046-1.778zm-7.064-10.666c.776 0 2.392 2.46 3.146 7.112h-6.296c.756-4.65 2.374-7.112 3.148-7.112zm-12.444 12.444c0-.606.056-1.196.142-1.778h5.236c-.026.59-.044 1.184-.044 1.778s.018 1.186.044 1.778h-5.236c-.086-.584-.142-1.174-.142-1.778zm8.936 1.778c-.028-.574-.046-1.16-.046-1.778 0-.616.018-1.206.046-1.778h7.016c.028.572.048 1.16.048 1.778 0 .616-.02 1.204-.048 1.778h-7.016zm3.51 10.666c-.776 0-2.392-2.462-3.148-7.112h6.296c-.756 4.648-2.372 7.112-3.146 7.112zm0-28.444c-8.824 0-16 7.176-16 16s7.176 16 16 16 16-7.176 16-16-7.176-16-16-16z"/></symbol>

  <symbol id="settings" viewBox="0 0 32 32"><path d="M32 11.347c-.333-1.114-.774-2.18-1.318-3.185-2.074.543-3.753-.27-5.164-1.681s-1.843-3.09-1.3-5.164c-1.004-.543-2.071-.985-3.185-1.318-1.083 1.85-3.038 3.078-5.034 3.078s-3.95-1.228-5.034-3.078c-1.114.333-2.18.774-3.184 1.317.542 2.074.111 3.753-1.3 5.165s-3.09 2.224-5.164 1.682c-.543 1.004-.985 2.071-1.318 3.184 1.85 1.083 3.078 2.658 3.078 4.653s-1.228 3.951-3.078 5.033c.333 1.114.774 2.181 1.318 3.185 2.074-.543 3.753-.111 5.164 1.3s1.843 3.09 1.3 5.164c1.004.543 2.071.985 3.185 1.317 1.083-1.85 3.038-3.078 5.033-3.078s3.951 1.229 5.034 3.078c1.114-.333 2.181-.774 3.185-1.318-.542-2.073-.111-3.752 1.3-5.163s3.09-2.224 5.164-1.681c.543-1.005.985-2.071 1.318-3.185-1.85-1.082-3.078-2.657-3.078-4.652s1.228-3.57 3.078-4.653zm-16 11.611c-3.843 0-6.958-3.115-6.958-6.959s3.115-6.959 6.958-6.959 6.958 3.115 6.958 6.959-3.115 6.959-6.958 6.959z"/></symbol>

  <symbol id="logout" viewBox="0 0 32 32"><path d="M17.813 28.444h-14.293v-24.889h14.293v5.333h3.52v-5.333c0-1.956-1.6-3.556-3.556-3.556h-14.222c-1.956 0-3.556 1.6-3.556 3.556v24.889c0 1.956 1.6 3.556 3.556 3.556h14.222c1.956 0 3.556-1.6 3.556-3.556v-3.556h-3.52v3.556zm14.187-11.555l-7.076-6.933v4.267h-16v5.333h16v4.267l7.076-6.933z"/></symbol>

  <symbol id="close" viewBox="0 0 32 32"><path d="M26.67 0L15.217 11.448 3.77 0 0 3.77l11.447 11.45L0 26.666l3.77 3.77L15.218 18.99l11.45 11.448 3.772-3.77-11.448-11.45L30.44 3.772z"/></symbol>
</svg>
